<?xml version="1.0" standalone="no"?><svg xmlns="http://www.w3.org/2000/svg" viewBox="0 0 1440 320"><path fill="#8a63ff" fill-opacity="0.3" d="M0,224L11.4,192C22.9,160,46,96,69,80C91.4,64,114,96,137,96C160,96,183,64,206,85.3C228.6,107,251,181,274,192C297.1,203,320,149,343,144C365.7,139,389,181,411,213.3C434.3,245,457,267,480,272C502.9,277,526,267,549,218.7C571.4,171,594,85,617,90.7C640,96,663,192,686,197.3C708.6,203,731,117,754,96C777.1,75,800,117,823,133.3C845.7,149,869,139,891,138.7C914.3,139,937,149,960,154.7C982.9,160,1006,160,1029,160C1051.4,160,1074,160,1097,170.7C1120,181,1143,203,1166,176C1188.6,149,1211,75,1234,64C1257.1,53,1280,107,1303,149.3C1325.7,192,1349,224,1371,202.7C1394.3,181,1417,107,1429,69.3L1440,32L1440,320L1428.6,320C1417.1,320,1394,320,1371,320C1348.6,320,1326,320,1303,320C1280,320,1257,320,1234,320C1211.4,320,1189,320,1166,320C1142.9,320,1120,320,1097,320C1074.3,320,1051,320,1029,320C1005.7,320,983,320,960,320C937.1,320,914,320,891,320C868.6,320,846,320,823,320C800,320,777,320,754,320C731.4,320,709,320,686,320C662.9,320,640,320,617,320C594.3,320,571,320,549,320C525.7,320,503,320,480,320C457.1,320,434,320,411,320C388.6,320,366,320,343,320C320,320,297,320,274,320C251.4,320,229,320,206,320C182.9,320,160,320,137,320C114.3,320,91,320,69,320C45.7,320,23,320,11,320L0,320Z"></path></svg>